<svg width="68" height="109" viewBox="0 0 68 109" fill="none" xmlns="http://www.w3.org/2000/svg">
<g clip-path="url(#clip0_890_1200)">
<path d="M11.2071 76.16C28.6367 77.5226 38.1607 77.3004 54.5737 76.16L46.9052 108.421C36.8883 109.618 31.2725 109.675 21.2555 108.421L11.2071 76.16Z" fill="#AB584B"/>
<ellipse cx="32.8904" cy="67.6674" rx="25.0942" ry="4.14753" fill="#EF8743"/>
<ellipse cx="33.1341" cy="67.2725" rx="20.9524" ry="2.17252" fill="#48373B"/>
<path d="M8.03986 68.2599C26.5559 72.8024 42.9439 73.277 57.9846 67.4698L56.4038 75.1079C51.2665 79.3088 19.6517 81.9822 9.37696 75.1079L8.03986 68.2599Z" fill="#E55C40"/>
<path d="M31.2464 21.0962L18.5161 11.7813L18.9551 11.1868L32.5634 20.8981L42.4404 9.79944H42.8794L34.3193 21.0962V66.6799H31.2464V21.0962Z" fill="#039E60"/>
<path d="M18.5161 29.9446C18.5161 29.9446 22.3753 28.854 24.8505 29.1546C28.1659 29.5573 32.1346 32.8371 32.1346 32.8371L31.6176 33.5068C31.6176 33.5068 28.1218 30.3644 25.0942 29.9446C22.7198 29.6154 19.0033 30.7346 19.0033 30.7346L18.5161 29.9446Z" fill="#039E60"/>
<path d="M45.6009 47.0574C45.6009 47.0574 41.7417 45.9667 39.2665 46.2674C35.9511 46.6701 31.9824 49.9499 31.9824 49.9499L32.4994 50.6196C32.4994 50.6196 35.9952 47.4772 39.0228 47.0574C41.3972 46.7282 45.1137 47.8474 45.1137 47.8474L45.6009 47.0574Z" fill="#039E60"/>
<path d="M20.4651 38.2396C20.4651 38.2396 22.6764 34.5117 25.1516 34.8123C28.467 35.215 32.4357 38.4948 32.4357 38.4948L31.9187 39.1645C31.9187 39.1645 28.1792 36.0919 25.1516 35.6721C22.7772 35.3428 21.4397 38.4948 21.4397 38.4948L20.4651 38.2396Z" fill="#039E60"/>
<path d="M38.6414 13.2156C38.6414 13.2156 37.8192 10.0661 41.7383 6.98868C47.9313 2.12582 59.2028 3.24236 59.2028 3.24236L52.1374 5.21737L39.0202 13.7284L38.6414 13.2156Z" fill="#30A174"/>
<path d="M39.0201 13.7283C39.0201 13.7283 45.253 16.7355 47.0211 12.7224C48.2393 9.95733 59.4464 3.24227 59.4464 3.24227C59.4464 3.24227 52.1374 3.0448 47.021 6.99484C43.7458 9.52348 39.0201 13.7283 39.0201 13.7283Z" fill="#048551"/>
<path d="M23.0639 12.3873C23.0639 12.3873 23.1457 9.08615 18.673 6.59276C11.6054 2.65278 0.991574 5.52541 0.991574 5.52541L8.24842 6.42015L22.8146 12.9627L23.0639 12.3873Z" fill="#30A174"/>
<path d="M22.8147 12.9627C22.8147 12.9627 17.4849 16.9593 14.8747 13.1896C13.0762 10.5921 0.756795 5.56315 0.756795 5.56315C0.756795 5.56315 7.75819 4.23098 13.5819 7.41807C17.31 9.4583 22.8147 12.9627 22.8147 12.9627Z" fill="#048551"/>
<path d="M42.2942 46.0318C42.2942 46.0318 45.5627 42.7784 50.6757 44.3227C58.7551 46.7628 66.2002 55.9235 66.2002 55.9235L63.1826 55.1832L41.8861 46.5296L42.2942 46.0318Z" fill="#30A174"/>
<path d="M41.8861 46.5296C41.8861 46.5296 41.1445 51.6834 46.4481 51.952C48.9516 52.0788 65.9762 55.864 65.9762 55.864C65.9762 55.864 58.2317 51.4313 52.8263 49.4881C48.6703 47.994 41.8861 46.5296 41.8861 46.5296Z" fill="#048551"/>
<path d="M24.9686 35.6591C24.9686 35.6591 22.7646 34.7251 20.7434 36.2611C17.5496 38.6882 16.093 44.0478 16.093 44.0478L17.3227 43.2186L25.2635 35.8171L24.9686 35.6591Z" fill="#30A174"/>
<path d="M25.2634 35.8171C25.2634 35.8171 26.7131 38.0241 24.3299 39.015C23.2049 39.4828 16.1833 43.9842 16.1833 43.9842C16.1833 43.9842 18.7944 40.7118 20.8644 38.9475C22.4559 37.5911 25.2634 35.8171 25.2634 35.8171Z" fill="#048551"/>
<path d="M20.096 29.0148C20.096 29.0148 17.892 28.0808 15.8708 29.6168C12.677 32.044 11.2204 37.4035 11.2204 37.4035L12.4501 36.5743L20.3909 29.1728L20.096 29.0148Z" fill="#30A174"/>
<path d="M20.3908 29.1727C20.3908 29.1727 21.8405 31.3796 19.4573 32.3706C18.3323 32.8384 11.3106 37.3398 11.3106 37.3398C11.3106 37.3398 13.9218 34.0673 15.9918 32.3031C17.5833 30.9467 20.3908 29.1727 20.3908 29.1727Z" fill="#048551"/>
</g>
<defs>
<clipPath id="clip0_890_1200">
<rect width="68" height="109" fill="white"/>
</clipPath>
</defs>
</svg>
