<svg width="82" height="15" viewBox="0 0 82 15" fill="none" xmlns="http://www.w3.org/2000/svg">
<path d="M3.0999 14.04L-9.76324e-05 0.28L2.3799 -2.38419e-07L4.8999 12.9L7.0999 3.7C7.16657 3.40667 7.37324 3.26 7.7199 3.26C8.0799 3.26 8.4799 3.29333 8.9199 3.36C9.3599 3.42667 9.6399 3.48667 9.7599 3.54L12.0599 12.82L14.5399 -2.38419e-07L16.9199 0.28L13.6999 14.4C13.5532 14.4667 13.1866 14.5267 12.5999 14.58C12.0132 14.6467 11.4866 14.68 11.0199 14.68C10.5666 14.68 10.2932 14.4667 10.1999 14.04L8.4599 6.1L6.6199 14.4C6.47324 14.4667 6.0999 14.5267 5.4999 14.58C4.91324 14.6467 4.38657 14.68 3.9199 14.68C3.45324 14.68 3.1799 14.4667 3.0999 14.04ZM19.6849 14.54V0.24C21.2982 0.0933339 23.1182 0.0200007 25.1449 0.0200007C26.8649 0.0200007 28.2716 0.613334 29.3649 1.8C30.4716 2.98667 31.0249 4.76 31.0249 7.12C31.0249 9.46667 30.4582 11.3133 29.3249 12.66C28.1916 13.9933 26.4582 14.66 24.1249 14.66C21.7916 14.66 20.3116 14.62 19.6849 14.54ZM21.9649 12.78C22.7649 12.8333 23.6449 12.86 24.6049 12.86C26.1116 12.86 27.1649 12.3733 27.7649 11.4C28.3782 10.4133 28.6849 8.97333 28.6849 7.08C28.6849 5.18667 28.3382 3.84 27.6449 3.04C26.9649 2.22667 26.0116 1.82 24.7849 1.82C24.2382 1.82 23.2982 1.86 21.9649 1.94V12.78ZM34.3919 14.54V0.14H36.6719V14.54H34.3919ZM40.9935 14.54V0.24C42.6068 0.0933339 44.4268 0.0200007 46.4535 0.0200007C48.1735 0.0200007 49.5802 0.613334 50.6735 1.8C51.7802 2.98667 52.3335 4.76 52.3335 7.12C52.3335 9.46667 51.7668 11.3133 50.6335 12.66C49.5002 13.9933 47.7668 14.66 45.4335 14.66C43.1002 14.66 41.6202 14.62 40.9935 14.54ZM43.2735 12.78C44.0735 12.8333 44.9535 12.86 45.9135 12.86C47.4202 12.86 48.4735 12.3733 49.0735 11.4C49.6868 10.4133 49.9935 8.97333 49.9935 7.08C49.9935 5.18667 49.6468 3.84 48.9535 3.04C48.2735 2.22667 47.3202 1.82 46.0935 1.82C45.5468 1.82 44.6068 1.86 43.2735 1.94V12.78ZM57.3351 14.54V1.94H53.0751V0.14H64.0351L63.7551 1.94H59.6151V14.54H57.3351ZM65.9693 14.54L66.6293 0.28C67.5359 0.106667 68.4159 0.0200007 69.2693 0.0200007C69.5359 0.0200007 69.7293 0.166667 69.8493 0.46L73.6693 10.9L77.4893 0.46C77.6093 0.166667 77.8026 0.0200007 78.0693 0.0200007C79.0293 0.0200007 79.9093 0.106667 80.7093 0.28L81.3693 14.54H79.1893L78.8493 2.28L75.1893 12.54C74.0693 12.7267 73.2959 12.82 72.8693 12.82C72.4426 12.82 72.1759 12.6733 72.0693 12.38L68.4893 2.28L68.1493 14.54H65.9693Z" fill="#1C1B20"/>
</svg>
