<svg width="230" height="18" viewBox="0 0 230 18" fill="none" xmlns="http://www.w3.org/2000/svg">
<g clip-path="url(#clip0_889_933)">
<path d="M87.5349 5.37346L88.8789 5.37747L91.212 12.0085L91.0083 11.9239L92.7369 7.489L93.2724 9.06261L90.9652 14.4077L87.5349 5.37346ZM91.6988 5.38589L92.8628 5.38937L95.3883 11.9249L95.1484 11.8762L97.4108 5.40295L98.6468 5.40664L95.2132 14.4084L91.6988 5.38589ZM100.084 14.039L100.11 4.75101L101.202 4.75427L101.187 10.2263L101.163 10.0222C101.332 9.69468 101.589 9.42345 101.934 9.20848C102.286 8.99353 102.699 8.88676 103.171 8.88817C103.643 8.88958 104.026 9.03073 104.321 9.31161C104.625 9.58452 104.78 9.94098 104.786 10.381L104.776 14.053L103.648 14.0496L103.657 10.7736C103.65 10.5016 103.571 10.2814 103.419 10.1129C103.276 9.93649 103.048 9.84781 102.736 9.84688C102.448 9.84602 102.188 9.92924 101.955 10.0965C101.723 10.2559 101.538 10.4753 101.401 10.7549C101.273 11.0345 101.208 11.3543 101.207 11.7143L101.2 14.0423L100.084 14.039ZM108.78 14.1849C108.316 14.1836 107.893 14.0823 107.509 13.8812C107.134 13.68 106.835 13.3871 106.612 13.0025C106.397 12.6098 106.29 12.1335 106.292 11.5735C106.293 11.0215 106.411 10.5459 106.644 10.1465C106.877 9.73924 107.186 9.42816 107.571 9.21331C107.963 8.99848 108.392 8.89176 108.856 8.89315C109.32 8.89453 109.711 9.0037 110.031 9.22066C110.35 9.42961 110.593 9.67834 110.76 9.96684L110.688 10.1586L110.799 9.10295L111.831 9.10604L111.817 14.074L110.701 14.0707L110.704 12.7747L110.824 13.063C110.791 13.1429 110.719 13.2467 110.607 13.3744C110.502 13.4941 110.358 13.6177 110.174 13.7451C109.997 13.8726 109.793 13.98 109.561 14.0673C109.329 14.1466 109.068 14.1858 108.78 14.1849ZM109.083 13.2618C109.363 13.2627 109.615 13.2114 109.84 13.1081C110.064 13.0048 110.248 12.8613 110.393 12.6778C110.545 12.4862 110.65 12.2585 110.707 11.9947L110.709 11.0227C110.646 10.7825 110.535 10.5742 110.375 10.3977C110.216 10.2132 110.024 10.0726 109.8 9.97598C109.577 9.87131 109.329 9.81857 109.057 9.81775C108.761 9.81687 108.489 9.88806 108.24 10.0313C107.992 10.1746 107.791 10.374 107.639 10.6295C107.494 10.8851 107.421 11.1849 107.42 11.5289C107.419 11.8489 107.494 12.1411 107.646 12.4056C107.797 12.67 108 12.8786 108.256 13.0314C108.511 13.1841 108.787 13.261 109.083 13.2618ZM114.248 6.92925L115.364 6.93258L115.358 9.14057L116.726 9.14466L116.724 10.0207L115.356 10.0166L115.344 14.0846L114.228 14.0812L114.24 10.0132L113.328 10.0105L113.33 9.13451L114.242 9.13724L114.248 6.92925ZM123.873 14.23C123.417 14.2287 123.001 14.1194 122.626 13.9023C122.259 13.6772 121.967 13.3643 121.753 12.9637C121.538 12.555 121.431 12.0867 121.433 11.5587C121.434 11.0067 121.548 10.5351 121.773 10.1437C122.006 9.75243 122.319 9.45336 122.711 9.24653C123.104 9.0397 123.544 8.93702 124.032 8.93848C124.424 8.93965 124.796 9.02476 125.147 9.19381C125.507 9.36288 125.786 9.59572 125.985 9.89231L125.936 10.2882L125.952 4.82819L127.056 4.83149L127.029 14.1195L125.913 14.1161L125.917 12.8801L126.036 13.1925C125.803 13.4958 125.502 13.7469 125.134 13.9458C124.765 14.1367 124.345 14.2314 123.873 14.23ZM124.224 13.2831C124.52 13.284 124.784 13.2327 125.016 13.1294C125.248 13.0181 125.441 12.8667 125.593 12.6752C125.746 12.4836 125.855 12.2559 125.919 11.9921L125.922 11.0561C125.859 10.8159 125.743 10.6076 125.576 10.4311C125.416 10.2466 125.221 10.102 124.989 9.99734C124.765 9.88467 124.514 9.82792 124.234 9.82708C123.93 9.82617 123.649 9.90134 123.393 10.0526C123.144 10.1958 122.944 10.3952 122.791 10.6508C122.638 10.9063 122.562 11.2021 122.561 11.5381C122.56 11.8661 122.635 12.1623 122.786 12.4268C122.937 12.6832 123.141 12.8918 123.396 13.0526C123.652 13.2054 123.928 13.2822 124.224 13.2831ZM128.985 9.15727L130.101 9.1606L130.087 14.1286L128.971 14.1252L128.985 9.15727ZM128.906 7.35703C128.906 7.18103 128.975 7.03323 129.111 6.91364C129.255 6.79407 129.412 6.73453 129.58 6.73503C129.748 6.73554 129.895 6.79598 130.023 6.91636C130.159 7.03677 130.226 7.18497 130.226 7.36097C130.225 7.54497 130.157 7.69676 130.021 7.81636C129.892 7.92797 129.744 7.98353 129.576 7.98303C129.408 7.98253 129.252 7.92206 129.109 7.80163C128.973 7.68123 128.905 7.53302 128.906 7.35703ZM134.033 14.2604C133.577 14.259 133.161 14.1498 132.786 13.9326C132.419 13.7075 132.128 13.3947 131.913 12.994C131.698 12.5854 131.591 12.1171 131.593 11.5891C131.594 11.0371 131.708 10.5654 131.933 10.1741C132.166 9.78277 132.479 9.48371 132.871 9.27688C133.264 9.07005 133.704 8.96736 134.192 8.96882C134.584 8.96999 134.956 9.0551 135.307 9.22415C135.667 9.39323 135.946 9.62606 136.145 9.92266L136.096 10.3185L136.112 4.85854L137.216 4.86183L137.189 14.1498L136.073 14.1465L136.077 12.9105L136.196 13.2228C135.963 13.5261 135.663 13.7772 135.294 13.9761C134.925 14.167 134.505 14.2618 134.033 14.2604ZM134.384 13.3134C134.68 13.3143 134.944 13.2631 135.176 13.1598C135.409 13.0485 135.601 12.897 135.754 12.7055C135.906 12.514 136.015 12.2863 136.079 12.0225L136.082 11.0865C136.019 10.8463 135.903 10.6379 135.736 10.4614C135.576 10.277 135.381 10.1324 135.149 10.0277C134.925 9.91502 134.674 9.85826 134.394 9.85743C134.09 9.85652 133.809 9.93168 133.553 10.0829C133.305 10.2262 133.104 10.4256 132.951 10.6811C132.799 10.9367 132.722 11.2324 132.721 11.5684C132.72 11.8964 132.795 12.1927 132.946 12.4571C133.098 12.7136 133.301 12.9222 133.556 13.0829C133.812 13.2357 134.088 13.3125 134.384 13.3134ZM143.228 5.49179L144.392 5.49527L144.368 14.1712L143.204 14.1678L143.228 5.49179ZM152.396 14.3152C151.94 14.3139 151.525 14.2046 151.149 13.9875C150.782 13.7624 150.491 13.4495 150.276 13.0489C150.061 12.6402 149.954 12.1719 149.956 11.6439C149.957 11.0919 150.071 10.6203 150.296 10.2289C150.529 9.83762 150.842 9.53855 151.234 9.33172C151.627 9.12489 152.067 9.02221 152.555 9.02367C152.947 9.02484 153.319 9.10995 153.671 9.279C154.03 9.44807 154.31 9.68091 154.509 9.9775L154.46 10.3734L154.475 4.91338L155.579 4.91668L155.553 14.2046L154.437 14.2013L154.44 12.9653L154.559 13.2777C154.326 13.581 154.026 13.8321 153.657 14.031C153.289 14.2219 152.868 14.3166 152.396 14.3152ZM152.747 13.3683C153.043 13.3691 153.307 13.3179 153.539 13.2146C153.772 13.1033 153.964 12.9519 154.117 12.7603C154.269 12.5688 154.378 12.3411 154.443 12.0773L154.445 11.1413C154.382 10.9011 154.267 10.6928 154.099 10.5163C153.94 10.3318 153.744 10.1872 153.512 10.0825C153.289 9.96986 153.037 9.91311 152.757 9.91227C152.453 9.91136 152.173 9.98653 151.916 10.1378C151.668 10.281 151.467 10.4804 151.314 10.736C151.162 10.9915 151.085 11.2873 151.084 11.6233C151.083 11.9513 151.158 12.2475 151.309 12.512C151.461 12.7684 151.664 12.977 151.92 13.1378C152.175 13.2905 152.451 13.3674 152.747 13.3683ZM157.069 11.6772C157.071 11.1812 157.188 10.7335 157.421 10.3342C157.662 9.93492 157.991 9.6199 158.408 9.38915C158.824 9.15839 159.297 9.0438 159.825 9.04538C160.369 9.047 160.844 9.16442 161.252 9.39764C161.659 9.63086 161.974 9.9478 162.197 10.3485C162.42 10.7491 162.531 11.1975 162.529 11.6935C162.528 12.1895 162.414 12.6411 162.189 13.0485C161.964 13.4478 161.643 13.7628 161.227 13.9936C160.818 14.2244 160.342 14.3389 159.798 14.3373C159.27 14.3357 158.798 14.2263 158.382 14.0091C157.975 13.7839 157.652 13.4749 157.413 13.0822C157.182 12.6815 157.068 12.2132 157.069 11.6772ZM158.185 11.6925C158.184 12.0125 158.255 12.3047 158.399 12.5691C158.542 12.8256 158.733 13.0301 158.973 13.1829C159.22 13.3356 159.492 13.4124 159.788 13.4133C160.1 13.4142 160.376 13.339 160.617 13.1878C160.865 13.0365 161.058 12.8331 161.195 12.5775C161.331 12.3139 161.4 12.0221 161.401 11.7021C161.402 11.3821 161.335 11.0939 161.2 10.8375C161.064 10.5731 160.873 10.3645 160.625 10.2118C160.386 10.0511 160.11 9.97023 159.798 9.9693C159.494 9.96839 159.218 10.0476 158.969 10.2068C158.729 10.3661 158.536 10.5775 158.392 10.8411C158.255 11.0967 158.186 11.3805 158.185 11.6925ZM168.33 7.09077L169.446 7.0941L169.44 9.3021L170.808 9.30618L170.805 10.1822L169.437 10.1781L169.426 14.2461L168.31 14.2427L168.321 10.1748L167.409 10.172L167.412 9.29604L168.324 9.29876L168.33 7.09077ZM172.142 14.2542L172.169 4.96623L173.261 4.96949L173.245 10.4415L173.222 10.2374C173.391 9.9099 173.647 9.63866 173.992 9.42369C174.345 9.20874 174.757 9.10198 175.229 9.10338C175.701 9.10479 176.085 9.24594 176.38 9.52682C176.683 9.79973 176.838 10.1562 176.845 10.5962L176.834 14.2682L175.706 14.2648L175.716 10.9888C175.708 10.7168 175.629 10.4966 175.477 10.3281C175.334 10.1517 175.106 10.063 174.794 10.0621C174.506 10.0612 174.246 10.1445 174.014 10.3118C173.781 10.4711 173.596 10.6905 173.46 10.9701C173.331 11.2497 173.266 11.5695 173.265 11.9295L173.258 14.2575L172.142 14.2542ZM178.789 9.30602L179.905 9.30935L179.891 14.2773L178.775 14.274L178.789 9.30602ZM178.71 7.50578C178.711 7.32978 178.779 7.18198 178.916 7.06239C179.06 6.94282 179.216 6.88328 179.384 6.88378C179.552 6.88429 179.7 6.94473 179.828 7.06511C179.963 7.18552 180.031 7.33372 180.03 7.50972C180.03 7.69372 179.961 7.84551 179.825 7.96511C179.697 8.07672 179.549 8.13228 179.381 8.13178C179.213 8.13128 179.057 8.07081 178.913 7.95038C178.777 7.82998 178.71 7.68177 178.71 7.50578ZM183.214 14.3833C182.862 14.3822 182.518 14.3212 182.182 14.2002C181.855 14.0712 181.583 13.8824 181.368 13.6337L181.838 12.9871C182.045 13.1878 182.257 13.3404 182.472 13.445C182.696 13.5417 182.916 13.5904 183.132 13.591C183.292 13.5915 183.44 13.5719 183.576 13.5323C183.712 13.4927 183.82 13.4291 183.901 13.3413C183.989 13.2456 184.033 13.1177 184.034 12.9577C184.034 12.7817 183.975 12.6415 183.855 12.5372C183.743 12.4328 183.595 12.3484 183.412 12.2838C183.236 12.2193 183.048 12.1588 182.848 12.1022C182.441 11.9649 182.129 11.776 181.914 11.5354C181.698 11.2947 181.591 11.0024 181.592 10.6584C181.593 10.3944 181.658 10.1506 181.786 9.92697C181.923 9.69538 182.12 9.50797 182.376 9.36473C182.64 9.22152 182.965 9.15049 183.349 9.15164C183.693 9.15266 184 9.19758 184.272 9.28639C184.544 9.36721 184.8 9.50397 185.039 9.69669L184.593 10.3914C184.449 10.2389 184.278 10.1264 184.078 10.0538C183.878 9.98122 183.698 9.94068 183.538 9.93221C183.402 9.9238 183.27 9.94341 183.142 9.99102C183.022 10.0387 182.922 10.1064 182.842 10.1941C182.761 10.2819 182.721 10.3858 182.721 10.5058C182.72 10.6738 182.776 10.8099 182.888 10.9143C182.999 11.0186 183.143 11.103 183.319 11.1676C183.503 11.2241 183.682 11.2846 183.858 11.3492C184.106 11.4219 184.326 11.5186 184.517 11.6391C184.709 11.7597 184.861 11.9082 184.972 12.0845C185.092 12.2609 185.151 12.481 185.15 12.745C185.149 13.041 185.077 13.3168 184.932 13.5724C184.795 13.82 184.583 14.0193 184.294 14.1705C184.014 14.3136 183.654 14.3846 183.214 14.3833ZM191.516 9.34403L191.608 10.4603L191.561 10.3642C191.746 9.98872 192.007 9.6935 192.343 9.4785C192.688 9.26353 193.08 9.1567 193.52 9.15801C193.8 9.15885 194.048 9.20359 194.264 9.29224C194.48 9.38088 194.655 9.50941 194.791 9.67781C194.934 9.83824 195.026 10.0385 195.065 10.2786L195.005 10.3145C195.198 9.95503 195.463 9.67582 195.799 9.47682C196.144 9.26985 196.504 9.16693 196.88 9.16805C197.368 9.16951 197.752 9.31065 198.031 9.59149C198.318 9.86435 198.465 10.2208 198.472 10.6608L198.461 14.3328L197.345 14.3295L197.355 11.0535C197.348 10.7975 197.284 10.5853 197.165 10.4169C197.053 10.2406 196.853 10.144 196.565 10.1271C196.277 10.1263 196.017 10.2135 195.785 10.3888C195.56 10.5641 195.384 10.7916 195.255 11.0712C195.126 11.3428 195.057 11.6386 195.048 11.9586L195.041 14.3226L193.925 14.3192L193.935 11.0433C193.928 10.7872 193.86 10.575 193.733 10.4067C193.613 10.2303 193.409 10.1337 193.121 10.1168C192.825 10.1159 192.565 10.2032 192.341 10.3785C192.116 10.5538 191.94 10.7813 191.811 11.0609C191.69 11.3406 191.629 11.6404 191.628 11.9604L191.621 14.3124L190.505 14.309L190.52 9.34105L191.516 9.34403ZM199.983 11.8053C199.984 11.3093 200.102 10.8617 200.335 10.4624C200.576 10.0631 200.905 9.74807 201.322 9.51732C201.738 9.28656 202.21 9.17197 202.738 9.17355C203.282 9.17517 203.758 9.29259 204.165 9.52581C204.573 9.75903 204.888 10.076 205.111 10.4766C205.334 10.8773 205.444 11.3256 205.443 11.8216C205.442 12.3176 205.328 12.7693 205.103 13.1766C204.878 13.576 204.557 13.891 204.14 14.1218C203.732 14.3525 203.255 14.4671 202.711 14.4655C202.183 14.4639 201.712 14.3545 201.296 14.1373C200.889 13.912 200.566 13.6031 200.327 13.2104C200.096 12.8097 199.981 12.3413 199.983 11.8053ZM201.099 11.8207C201.098 12.1407 201.169 12.4329 201.312 12.6973C201.456 12.9537 201.647 13.1583 201.887 13.311C202.134 13.4638 202.406 13.5406 202.702 13.5415C203.014 13.5424 203.29 13.4672 203.531 13.3159C203.779 13.1647 203.972 12.9612 204.108 12.7057C204.245 12.4421 204.314 12.1503 204.315 11.8303C204.316 11.5103 204.249 11.2221 204.113 10.9657C203.978 10.7013 203.787 10.4927 203.539 10.3399C203.3 10.1792 203.024 10.0984 202.712 10.0975C202.408 10.0966 202.132 10.1757 201.883 10.335C201.643 10.4943 201.45 10.7057 201.305 10.9693C201.169 11.2249 201.1 11.5087 201.099 11.8207ZM207.957 9.39313L208.05 10.6054L208.002 10.4133C208.163 10.0458 208.424 9.75453 208.785 9.53961C209.145 9.31668 209.561 9.20592 210.033 9.20733C210.505 9.20874 210.889 9.34989 211.184 9.63077C211.488 9.90368 211.643 10.2601 211.649 10.7002L211.639 14.3722L210.511 14.3688L210.52 11.0928C210.513 10.8208 210.434 10.6005 210.282 10.4321C210.139 10.2557 209.911 10.167 209.599 10.166C209.311 10.1652 209.051 10.2444 208.818 10.4037C208.586 10.563 208.401 10.7825 208.264 11.0621C208.135 11.3417 208.07 11.6655 208.069 12.0335L208.063 14.3615L206.947 14.3581L206.961 9.39016L207.957 9.39313ZM214.08 7.22741L215.196 7.23074L215.19 9.43874L216.558 9.44282L216.555 10.3188L215.187 10.3147L215.176 14.3827L214.06 14.3794L214.071 10.3114L213.159 10.3087L213.162 9.43268L214.074 9.4354L214.08 7.22741ZM217.892 14.3908L217.919 5.10287L219.011 5.10613L218.995 10.5781L218.972 10.374C219.14 10.0465 219.397 9.7753 219.742 9.56033C220.094 9.34538 220.507 9.23861 220.979 9.24002C221.451 9.24143 221.834 9.38258 222.13 9.66346C222.433 9.93637 222.588 10.2928 222.595 10.7329L222.584 14.4048L221.456 14.4015L221.465 11.1255C221.458 10.8535 221.379 10.6332 221.227 10.4648C221.084 10.2883 220.856 10.1997 220.544 10.1987C220.256 10.1979 219.996 10.2811 219.763 10.4484C219.531 10.6077 219.346 10.8272 219.209 11.1067C219.081 11.3864 219.016 11.7062 219.015 12.0662L219.008 14.3942L217.892 14.3908ZM225.563 12.1937L225.565 11.4377C225.566 11.0457 225.619 10.7339 225.724 10.5022C225.829 10.2625 225.965 10.0629 226.134 9.90342C226.302 9.74393 226.475 9.58844 226.651 9.43697C226.9 9.22971 227.112 9.01434 227.289 8.79087C227.474 8.55942 227.566 8.25969 227.567 7.8917C227.568 7.6277 227.505 7.39551 227.377 7.19513C227.258 6.99477 227.098 6.83829 226.899 6.72569C226.699 6.6131 226.483 6.55645 226.251 6.55576C225.987 6.55497 225.751 6.61427 225.543 6.73364C225.342 6.84505 225.174 6.99654 225.037 7.18814C224.901 7.37173 224.792 7.57541 224.712 7.79917L223.789 7.36441C223.845 7.18858 223.938 6.99685 224.067 6.78924C224.203 6.57364 224.376 6.37016 224.584 6.17878C224.793 5.9874 225.045 5.83215 225.342 5.71304C225.638 5.58592 225.978 5.52294 226.362 5.52409C226.818 5.52545 227.226 5.61467 227.585 5.79174C227.945 5.96882 228.228 6.22566 228.435 6.56228C228.65 6.89893 228.757 7.31125 228.756 7.79924C228.755 8.18324 228.698 8.50307 228.585 8.75874C228.472 9.0144 228.328 9.23797 228.151 9.42945C227.983 9.62094 227.798 9.80839 227.597 9.9918C227.429 10.1353 227.273 10.2788 227.128 10.4224C226.992 10.558 226.883 10.7257 226.803 10.9254C226.722 11.1172 226.682 11.3731 226.681 11.6931L226.679 12.1971L225.563 12.1937ZM226.133 14.3674C225.925 14.3668 225.753 14.3063 225.618 14.1859C225.482 14.0655 225.414 13.9093 225.415 13.7173C225.415 13.5413 225.484 13.3935 225.62 13.2739C225.756 13.1463 225.929 13.0828 226.137 13.0834C226.337 13.084 226.5 13.1485 226.628 13.2769C226.764 13.3973 226.831 13.5455 226.831 13.7215C226.83 13.9135 226.762 14.0693 226.626 14.1889C226.497 14.3085 226.333 14.368 226.133 14.3674Z" fill="#1C1B20"/>
<path d="M2.7 15.5L-0.4 1.74L1.98 1.46L4.5 14.36L6.7 5.16C6.76667 4.86667 6.97333 4.72 7.32 4.72C7.68 4.72 8.08 4.75333 8.52 4.82C8.96 4.88667 9.24 4.94667 9.36 5L11.66 14.28L14.14 1.46L16.52 1.74L13.3 15.86C13.1533 15.9267 12.7867 15.9867 12.2 16.04C11.6133 16.1067 11.0867 16.14 10.62 16.14C10.1667 16.14 9.89333 15.9267 9.8 15.5L8.06 7.56L6.22 15.86C6.07333 15.9267 5.7 15.9867 5.1 16.04C4.51333 16.1067 3.98667 16.14 3.52 16.14C3.05333 16.14 2.78 15.9267 2.7 15.5ZM19.285 16V1.7C20.8983 1.55333 22.7183 1.48 24.745 1.48C26.465 1.48 27.8717 2.07333 28.965 3.26C30.0717 4.44667 30.625 6.22 30.625 8.58C30.625 10.9267 30.0583 12.7733 28.925 14.12C27.7917 15.4533 26.0583 16.12 23.725 16.12C21.3917 16.12 19.9117 16.08 19.285 16ZM21.565 14.24C22.365 14.2933 23.245 14.32 24.205 14.32C25.7117 14.32 26.765 13.8333 27.365 12.86C27.9783 11.8733 28.285 10.4333 28.285 8.54C28.285 6.64667 27.9383 5.3 27.245 4.5C26.565 3.68667 25.6117 3.28 24.385 3.28C23.8383 3.28 22.8983 3.32 21.565 3.4V14.24ZM33.992 16V1.6H36.272V16H33.992ZM40.5936 16V1.7C42.2069 1.55333 44.0269 1.48 46.0536 1.48C47.7736 1.48 49.1803 2.07333 50.2736 3.26C51.3803 4.44667 51.9336 6.22 51.9336 8.58C51.9336 10.9267 51.3669 12.7733 50.2336 14.12C49.1003 15.4533 47.3669 16.12 45.0336 16.12C42.7003 16.12 41.2203 16.08 40.5936 16ZM42.8736 14.24C43.6736 14.2933 44.5536 14.32 45.5136 14.32C47.0203 14.32 48.0736 13.8333 48.6736 12.86C49.2869 11.8733 49.5936 10.4333 49.5936 8.54C49.5936 6.64667 49.2469 5.3 48.5536 4.5C47.8736 3.68667 46.9203 3.28 45.6936 3.28C45.1469 3.28 44.2069 3.32 42.8736 3.4V14.24ZM56.9352 16V3.4H52.6752V1.6H63.6352L63.3552 3.4H59.2152V16H56.9352ZM65.5694 16L66.2294 1.74C67.136 1.56667 68.016 1.48 68.8694 1.48C69.136 1.48 69.3294 1.62667 69.4494 1.92L73.2694 12.36L77.0894 1.92C77.2094 1.62667 77.4027 1.48 77.6694 1.48C78.6294 1.48 79.5094 1.56667 80.3094 1.74L80.9694 16H78.7894L78.4494 3.74L74.7894 14C73.6694 14.1867 72.896 14.28 72.4694 14.28C72.0427 14.28 71.776 14.1333 71.6694 13.84L68.0894 3.74L67.7494 16H65.5694Z" fill="#1C1B20"/>
</g>
<defs>
<clipPath id="clip0_889_933">
<rect width="230" height="18" fill="white"/>
</clipPath>
</defs>
</svg>
